<?xml version="1.0" standalone="no"?>
<!DOCTYPE svg PUBLIC "-//W3C//DTD SVG 20010904//EN"
 "http://www.w3.org/TR/2001/REC-SVG-20010904/DTD/svg10.dtd">
<svg version="1.0" xmlns="http://www.w3.org/2000/svg"
 width="682.000000pt" height="777.000000pt" viewBox="0 0 682.000000 777.000000"
 preserveAspectRatio="xMidYMid meet">

<g transform="translate(0.000000,777.000000) scale(0.100000,-0.100000)"
fill="#000000" stroke="none">
<path d="M1137 7744 c-240 -37 -457 -152 -633 -336 -89 -93 -133 -156 -191
-273 -78 -156 -107 -277 -119 -491 l-7 -131 -61 -5 c-73 -6 -102 -22 -116 -62
-6 -19 -10 -394 -10 -1083 0 -1147 -2 -1111 55 -1133 15 -6 51 -10 81 -10 l54
0 0 -219 0 -218 -66 -6 c-54 -4 -71 -10 -93 -31 l-26 -26 0 -1090 0 -1089 23
-23 c19 -19 35 -23 102 -26 74 -4 80 -6 80 -26 0 -43 52 -211 90 -293 159
-339 484 -585 842 -635 l77 -11 193 -253 193 -254 401 0 402 0 189 248 189
247 755 2 754 3 194 -255 194 -255 401 0 401 1 200 263 200 264 100 26 c356
94 649 367 768 716 61 179 57 -9 55 2895 l-3 2650 -27 97 c-121 438 -476 757
-917 823 -139 21 -4589 20 -4724 -1z m4759 -46 c240 -55 426 -157 580 -321
154 -161 251 -366 284 -593 8 -57 10 -799 8 -2694 l-3 -2615 -27 -97 c-100
-362 -355 -636 -703 -755 -163 -55 -46 -53 -2530 -53 -2443 0 -2371 -1 -2512
46 -287 96 -516 293 -643 551 -37 77 -82 212 -95 286 l-6 37 61 0 c55 0 65 3
91 29 l29 29 0 1077 c0 1199 4 1125 -68 1144 -20 6 -56 11 -79 11 l-43 0 0
220 0 220 64 0 c54 0 70 4 93 24 l28 24 3 1079 c2 815 -1 1085 -10 1107 -14
36 -61 56 -128 56 l-50 0 0 114 c0 315 110 577 332 792 169 164 404 272 638
293 52 5 1112 8 2355 7 2037 -2 2267 -4 2331 -18z"/>
<path d="M3350 6234 c-556 -51 -1026 -281 -1396 -684 -282 -306 -462 -686
-525 -1105 -24 -164 -26 -441 -3 -594 52 -360 189 -689 406 -978 79 -105 248
-279 358 -369 458 -373 1081 -534 1670 -433 660 113 1231 541 1526 1144 248
509 283 1080 97 1619 -142 415 -443 801 -818 1051 -257 172 -549 284 -855 330
-105 15 -376 27 -460 19z m366 -55 c746 -73 1403 -566 1688 -1265 299 -734
146 -1585 -390 -2163 -398 -429 -927 -661 -1509 -661 -568 0 -1079 216 -1474
623 -704 724 -774 1854 -166 2662 77 102 220 251 329 342 300 252 686 416
1086 462 110 12 311 13 436 0z"/>
<path d="M3345 5394 c-11 -3 -56 -12 -100 -20 -481 -93 -873 -484 -976 -975
-30 -146 -31 -363 -1 -505 33 -152 92 -298 169 -418 238 -368 632 -586 1063
-586 538 0 1018 346 1190 858 32 97 60 240 60 312 0 30 6 52 15 60 8 7 15 18
15 25 0 7 -7 18 -15 25 -10 8 -15 31 -15 67 0 70 -33 232 -66 325 -146 409
-496 717 -924 813 -73 16 -370 30 -415 19z m91 -76 c-30 -146 -52 -426 -62
-805 l-7 -241 -121 -6 c-67 -3 -229 -10 -361 -16 -325 -15 -546 -42 -582 -72
-16 -13 -17 1 -2 113 60 463 372 846 814 998 95 32 222 59 289 60 38 1 38 1
32 -31z m356 -3 c339 -88 618 -308 777 -614 73 -140 131 -343 131 -458 0 -37
-3 -44 -17 -39 -81 23 -347 44 -735 57 -177 6 -325 13 -327 15 -2 2 -8 135
-12 296 -9 312 -31 608 -53 715 l-14 66 79 -7 c43 -3 120 -17 171 -31z m-1352
-1239 c131 -21 320 -35 620 -46 140 -5 267 -10 281 -10 l26 0 7 -232 c11 -396
37 -719 65 -815 9 -32 9 -33 -22 -33 -59 0 -208 31 -300 61 -181 61 -346 165
-484 307 -180 185 -301 440 -332 697 -15 122 -16 116 17 100 15 -8 70 -21 122
-29z m2260 -30 c0 -111 -58 -313 -128 -450 -153 -297 -430 -525 -747 -613 -74
-20 -204 -43 -249 -43 -35 0 -38 2 -32 23 30 105 54 397 65 772 4 151 9 277
12 279 2 2 151 9 330 15 351 12 553 26 664 46 39 7 73 13 78 14 4 0 7 -19 7
-43z"/>
</g>
</svg>
